<svg xmlns="http://www.w3.org/2000/svg" viewBox="0 0 1200 800"><g data-name="Secondary shapes"><path fill="#47dbe6" d="M216.4,385.46c-4.24-7-15.88-13.76-29.28-13.76-17.29,0-25.58,7.24-25.58,16.41,0,10.76,12.7,13.76,27.52,15.52,25.75,3.18,49.74,9.88,49.74,39.34,0,27.52-24.34,39.34-51.86,39.34-25.22,0-44.63-7.76-53.8-30.34l19.4-10.06c5.47,13.58,19.76,19.58,34.75,19.58,14.64,0,28.4-5.12,28.4-18.52,0-11.64-12.17-16.41-28.57-18.17-25.23-3-48.51-9.7-48.51-37.39,0-25.41,25-35.82,47.8-36,19.23,0,39.16,5.47,48.51,24.52Z"/><path fill="#b8d1cd" d="M340.94,482.31V429.39H280.25v52.92H257V355.83h23.28v52h60.69v-52H364V482.31Z"/><path fill="#ff8c94" d="M582.6 442.79H547.67v36.34H524.39V355.65c19.4 0 38.81-.18 58.21-.18C642.93 355.47 643.1 442.79 582.6 442.79zm-34.93-21.34H582.6c29.81 0 29.63-43.75 0-43.75H547.67zM701.84 442.79H666.92v36.34H643.63V355.65c19.41 0 38.81-.18 58.21-.18C762.17 355.47 762.35 442.79 701.84 442.79zm-34.92-21.34h34.92c29.82 0 29.64-43.75 0-43.75H666.92z"/><path fill="#47dbe6" d="M763.05,479.13V355.65h23.11V479.13Z"/><path fill="#b8d1cd" d="M889.18,355.47h23.28V479.13H898v.18l-64.92-83.44v83.26H809.8V355.65h18.87l60.51,76.56Z"/><path fill="#47dbe6" d="M1025.53 385.82c-8.29-7.94-20.64-12.35-31.4-12.35-26.46 0-42.51 20.11-42.51 45.51 0 20.28 11.82 41.28 42.51 41.28 9.71 0 18.17-2.12 27.88-9.88V428.5H990.43V407.69h52.92v52c-12.17 13.93-27.52 22.22-49.22 22.22-46.39 0-65.27-30.51-65.27-63 0-34.75 21.7-66.86 65.27-66.86A65.21 65.21 0 011040 371zM444 353.18a65.27 65.27 0 1065.27 65.27A65.26 65.26 0 00444 353.18zm0 109.37a44.1 44.1 0 1144.1-44.1A44.11 44.11 0 01444 462.55z"/><path fill="none" stroke="#111416" stroke-linecap="round" stroke-linejoin="round" stroke-width="3" d="M357.64,482.31a6.41,6.41,0,1,1,6.4,6.4A6.41,6.41,0,0,1,357.64,482.31Z"/><line x1="364.04" x2="364.04" y1="475.9" y2="442" fill="none" stroke="#111416" stroke-linecap="round" stroke-linejoin="round" stroke-width="3"/><line x1="364.04" x2="364.04" y1="429.34" y2="403.1" fill="none" stroke="#111416" stroke-linecap="round" stroke-linejoin="round" stroke-width="3"/><line x1="357.64" x2="342.51" y1="482.31" y2="482.31" fill="none" stroke="#111416" stroke-linecap="round" stroke-linejoin="round" stroke-width="3"/><path fill="none" stroke="#111416" stroke-linecap="round" stroke-linejoin="round" stroke-width="3" d="M779.76,355.65a6.4,6.4,0,1,0,6.4-6.4A6.4,6.4,0,0,0,779.76,355.65Z"/><line x1="786.16" x2="786.16" y1="362.05" y2="395.95" fill="none" stroke="#111416" stroke-linecap="round" stroke-linejoin="round" stroke-width="3"/><line x1="786.16" x2="786.16" y1="408.62" y2="434.86" fill="none" stroke="#111416" stroke-linecap="round" stroke-linejoin="round" stroke-width="3"/><line x1="779.76" x2="764.62" y1="355.65" y2="355.65" fill="none" stroke="#111416" stroke-linecap="round" stroke-linejoin="round" stroke-width="3"/><path fill="none" stroke="#111416" stroke-linecap="round" stroke-linejoin="round" stroke-width="3" d="M922.46,419a6.41,6.41,0,1,0,6.41-6.4A6.41,6.41,0,0,0,922.46,419Z"/><path fill="none" stroke="#111416" stroke-linecap="round" stroke-linejoin="round" stroke-width="3" d="M941.29,459.24c-7.31-9.61-11.2-21.46-12.18-33.87M949,368.52a57.42,57.42,0,0,1,7.81-6.14m-27.73,50.21A70.77,70.77,0,0,1,940,379.36"/><polygon fill="none" stroke="#111416" stroke-linecap="round" stroke-linejoin="round" stroke-width="3" points="817.68 566.86 831.85 596 846.82 581.03 817.68 566.86"/><line x1="839.33" x2="852.13" y1="588.51" y2="601.31" fill="none" stroke="#111416" stroke-linecap="round" stroke-linejoin="round" stroke-width="3"/><line x1="816.74" x2="816.74" y1="554.04" y2="546.3" fill="none" stroke="#111416" stroke-linecap="round" stroke-linejoin="round" stroke-width="3"/><line x1="826.46" x2="831.94" y1="558.07" y2="552.59" fill="none" stroke="#111416" stroke-linecap="round" stroke-linejoin="round" stroke-width="3"/><line x1="803" x2="795.26" y1="567.79" y2="567.79" fill="none" stroke="#111416" stroke-linecap="round" stroke-linejoin="round" stroke-width="3"/><line x1="807.02" x2="801.55" y1="577.51" y2="582.98" fill="none" stroke="#111416" stroke-linecap="round" stroke-linejoin="round" stroke-width="3"/><line x1="816.74" x2="816.74" y1="581.53" y2="589.28" fill="none" stroke="#111416" stroke-linecap="round" stroke-linejoin="round" stroke-width="3"/><rect width="99.68" height="47.04" x="708.64" y="510.45" fill="#ff8c94"/><path fill="none" stroke="#fff" stroke-linecap="round" stroke-linejoin="round" stroke-width="3" d="M764.43 522.2V544a3.06 3.06 0 01-3.06 3h-6.11a3.06 3.06 0 01-3-3V522.2M733.56 534.42h6.94a3.06 3.06 0 003-3.06v-6.11a3.06 3.06 0 00-3-3h-6.94v24.43h9.17a3.06 3.06 0 003-3v-6.11a3.07 3.07 0 00-3-3.05h-3.06"/><polyline fill="none" stroke="#fff" stroke-linecap="round" stroke-linejoin="round" stroke-width="3" points="771.86 522.2 777.97 534.12 784.08 522.2"/><line x1="777.97" x2="777.97" y1="534.12" y2="547.03" fill="none" stroke="#fff" stroke-linecap="round" stroke-linejoin="round" stroke-width="3"/><rect width="64.2" height="135.24" x="585.09" y="514.11" fill="#47dbe6"/><polyline fill="none" stroke="#111416" stroke-linecap="round" stroke-linejoin="round" stroke-width="3" points="654.53 639.95 600.29 639.95 600.29 504.72 664.49 504.72 664.49 613.48"/><path fill="none" stroke="#111416" stroke-linecap="round" stroke-linejoin="round" stroke-width="3" d="M654.53 630.35H609.14v-3.61M656 517.92v-3.6H609.14v3.6"/><path fill="#fff" stroke="#111416" stroke-linecap="round" stroke-linejoin="round" stroke-width="3" d="M632.39,587.87a15.54,15.54,0,1,1,15.54-15.53A15.53,15.53,0,0,1,632.39,587.87Z"/><line x1="632.39" x2="632.39" y1="597.91" y2="612.67" fill="none" stroke="#111416" stroke-linecap="round" stroke-linejoin="round" stroke-width="3"/><line x1="623.14" x2="623.14" y1="595.78" y2="602.89" fill="none" stroke="#111416" stroke-linecap="round" stroke-linejoin="round" stroke-width="3"/><line x1="632.39" x2="632.39" y1="546.76" y2="532" fill="none" stroke="#111416" stroke-linecap="round" stroke-linejoin="round" stroke-width="3"/><line x1="641.63" x2="641.63" y1="548.89" y2="541.78" fill="none" stroke="#111416" stroke-linecap="round" stroke-linejoin="round" stroke-width="3"/><line x1="623.14" x2="623.14" y1="548.89" y2="541.78" fill="none" stroke="#111416" stroke-linecap="round" stroke-linejoin="round" stroke-width="3"/><polyline fill="none" stroke="#111416" stroke-linecap="round" stroke-linejoin="round" stroke-width="3" points="621.49 699.79 621.49 674.49 668.94 674.49 668.94 699.79"/><path fill="none" stroke="#111416" stroke-linecap="round" stroke-linejoin="round" stroke-width="3" d="M621.49 674.49V663.85a5.08 5.08 0 01-5.2-5.27V640M668.94 674.49v-4.1c3.77 0 11.67-4.64 11.67-14.85v-38a15 15 0 00-4.42-10.66l-11.7-11.7"/><path fill="none" stroke="#111416" stroke-linecap="round" stroke-linejoin="round" stroke-width="3" d="M673.17,622.17,647,596a8.47,8.47,0,0,0-12,12l19.54,19.54v13.66a12.54,12.54,0,0,0,12.54,12.54"/><circle cx="630.1" cy="683.1" r="1.74" fill="#111416"/><polygon fill="#ff8c94" points="125.75 349.19 119.15 355.79 119.15 334.24 111.87 334.24 111.87 355.79 105.27 349.19 100.12 354.34 112.94 367.16 115.51 369.73 118.08 367.16 130.9 354.34 125.75 349.19"/><path fill="#fff" stroke="#111416" stroke-linecap="round" stroke-linejoin="round" stroke-width="3" d="M378.78 616.89a9.17 9.17 0 119.16 9.17A9.16 9.16 0 01378.78 616.89zM430.64 616.89a9.17 9.17 0 119.17 9.17A9.17 9.17 0 01430.64 616.89z"/><line x1="397.11" x2="430.64" y1="616.89" y2="616.89" fill="none" stroke="#111416" stroke-linecap="round" stroke-linejoin="round" stroke-width="3"/><line x1="444.27" x2="383.48" y1="598.13" y2="598.13" fill="none" stroke="#111416" stroke-linecap="round" stroke-linejoin="round" stroke-width="3"/><line x1="383.48" x2="345.49" y1="598.13" y2="502.72" fill="none" stroke="#111416" stroke-linecap="round" stroke-linejoin="round" stroke-width="3"/><line x1="444.27" x2="475" y1="598.13" y2="520.95" fill="none" stroke="#111416" stroke-linecap="round" stroke-linejoin="round" stroke-width="3"/><line x1="394.64" x2="382.6" y1="583.91" y2="535.58" fill="none" stroke="#111416" stroke-linecap="round" stroke-linejoin="round" stroke-width="3"/><line x1="433.12" x2="445.15" y1="583.91" y2="535.58" fill="none" stroke="#111416" stroke-linecap="round" stroke-linejoin="round" stroke-width="3"/><line x1="352.75" x2="475" y1="520.95" y2="520.95" fill="none" stroke="#111416" stroke-linecap="round" stroke-linejoin="round" stroke-width="3"/><line x1="358.58" x2="469.18" y1="535.58" y2="535.58" fill="none" stroke="#111416" stroke-linecap="round" stroke-linejoin="round" stroke-width="3"/><line x1="364.88" x2="462.87" y1="551.42" y2="551.42" fill="none" stroke="#111416" stroke-linecap="round" stroke-linejoin="round" stroke-width="3"/><line x1="371.36" x2="456.4" y1="567.67" y2="567.67" fill="none" stroke="#111416" stroke-linecap="round" stroke-linejoin="round" stroke-width="3"/><line x1="377.82" x2="449.93" y1="583.91" y2="583.91" fill="none" stroke="#111416" stroke-linecap="round" stroke-linejoin="round" stroke-width="3"/><line x1="413.88" x2="413.88" y1="583.91" y2="535.58" fill="none" stroke="#111416" stroke-linecap="round" stroke-linejoin="round" stroke-width="3"/><path fill="none" stroke="#111416" stroke-linecap="round" stroke-linejoin="round" stroke-width="3" d="M329.85,502.72a6.15,6.15,0,1,0,0,12.29h20.53l-4.89-12.29Z"/><path fill="none" stroke="#111416" stroke-width="3" d="M84.81,417.81a7.63,7.63,0,1,1,7.63,7.62A7.64,7.64,0,0,1,84.81,417.81Z"/><path fill="none" stroke="#111416" stroke-linecap="round" stroke-width="3" d="M81.32,435.74v42.75a3.82,3.82,0,0,0,3.82,3.82h14.6a3.82,3.82,0,0,0,3.81-3.82V435.74"/><path fill="none" stroke="#111416" stroke-linecap="round" stroke-width="3" d="M92.44 425.43H84.35c-7.14 0-10.74 4.65-10.74 11.25v16.5a3.86 3.86 0 007.71 0M92.44 425.43h8.08c7.14 0 10.75 4.65 10.75 11.25v16.5a3.86 3.86 0 01-7.72 0"/><line x1="92.44" x2="92.44" y1="457.71" y2="482.31" fill="none" stroke="#111416" stroke-linecap="round" stroke-width="3"/><rect width="112.85" height="55.44" x="163.44" y="501.93" fill="none" stroke="#111416" stroke-linecap="round" stroke-linejoin="round" stroke-width="3"/><rect width="120.77" height="19.62" x="159.48" y="482.31" fill="none" stroke="#111416" stroke-linecap="round" stroke-linejoin="round" stroke-width="3"/><path fill="none" stroke="#111416" stroke-linecap="round" stroke-linejoin="round" stroke-width="3" d="M236.3,465.87a9.63,9.63,0,1,0-16.43-6.81v23.25Z"/><path fill="none" stroke="#111416" stroke-linecap="round" stroke-linejoin="round" stroke-width="3" d="M243.11 482.31a9.63 9.63 0 10-6.81-16.44l-16.43 16.44zM203.43 465.87a9.63 9.63 0 1116.44-6.81v23.25z"/><path fill="none" stroke="#111416" stroke-linecap="round" stroke-linejoin="round" stroke-width="3" d="M196.62,482.31a9.63,9.63,0,1,1,6.81-16.44l16.44,16.44Z"/><line x1="219.87" x2="219.87" y1="482.31" y2="557.37" fill="#fff" stroke="#111416" stroke-linecap="round" stroke-linejoin="round" stroke-width="3"/><rect width="82.41" height="72.19" x="908.22" y="552.7" fill="none" stroke="#111416" stroke-linecap="round" stroke-linejoin="round" stroke-width="3"/><rect width="93.68" height="19.62" x="902.58" y="533.08" fill="none" stroke="#111416" stroke-linecap="round" stroke-linejoin="round" stroke-width="3"/><path fill="none" stroke="#111416" stroke-linecap="round" stroke-linejoin="round" stroke-width="3" d="M962.2,520.3A7.49,7.49,0,1,0,949.42,515v18.07Z"/><path fill="none" stroke="#111416" stroke-linecap="round" stroke-linejoin="round" stroke-width="3" d="M967.5 533.08a7.49 7.49 0 10-5.3-12.78l-12.78 12.78zM936.64 520.3A7.49 7.49 0 11949.42 515v18.07z"/><path fill="none" stroke="#111416" stroke-linecap="round" stroke-linejoin="round" stroke-width="3" d="M931.35,533.08a7.48,7.48,0,1,1,5.29-12.78l12.78,12.78Z"/><line x1="949.42" x2="949.42" y1="533.08" y2="624.89" fill="#fff" stroke="#111416" stroke-linecap="round" stroke-linejoin="round" stroke-width="3"/><polygon fill="#ff8c94" points="375.27 168.83 375.27 188.46 379.23 188.46 379.23 243.9 492.08 243.9 492.08 188.46 496.04 188.46 496.04 168.83 375.27 168.83"/><line x1="435.66" x2="435.66" y1="168.83" y2="243.9" fill="#fff" stroke="#111416" stroke-linecap="round" stroke-linejoin="round" stroke-width="3"/><line x1="492.08" x2="379.23" y1="188.46" y2="188.46" fill="#fff" stroke="#111416" stroke-linecap="round" stroke-linejoin="round" stroke-width="3"/><rect width="165.37" height="115.04" x="228.17" y="215.64" fill="none" stroke="#111416" stroke-linecap="round" stroke-linejoin="round" stroke-width="3"/><line x1="228.17" x2="393.54" y1="223.92" y2="223.92" fill="none" stroke="#111416" stroke-linecap="round" stroke-linejoin="round" stroke-width="3"/><line x1="228.17" x2="393.54" y1="317.51" y2="317.51" fill="none" stroke="#111416" stroke-linecap="round" stroke-linejoin="round" stroke-width="3"/><line x1="290.49" x2="290.49" y1="330.69" y2="347.92" fill="none" stroke="#111416" stroke-linecap="round" stroke-linejoin="round" stroke-width="3"/><line x1="331.24" x2="331.24" y1="330.69" y2="347.92" fill="none" stroke="#111416" stroke-linecap="round" stroke-linejoin="round" stroke-width="3"/><rect width="109.05" height="7.91" x="256.33" y="347.92" fill="none" stroke="#111416" stroke-linecap="round" stroke-linejoin="round" stroke-width="3"/><path fill="#111416" d="M387,324.1a2,2,0,1,1-2-2A2,2,0,0,1,387,324.1Z"/><circle cx="376.82" cy="324.1" r="1.98" fill="#111416"/><path fill="#111416" d="M370.65,324.1a2,2,0,1,1-2-2A2,2,0,0,1,370.65,324.1Z"/><path fill="#47dbe6" d="M275.46,270.55a35.4,35.4,0,1,1,35.4,35.4A35.4,35.4,0,0,1,275.46,270.55Z"/><polyline fill="none" stroke="#fff" stroke-linecap="round" stroke-linejoin="round" stroke-width="3" points="326.72 266.5 323.25 276.95 299.82 276.95 294.17 259.88 289.45 259.88"/><path fill="#fff" d="M322.37 282.44a2.44 2.44 0 102.44 2.44A2.44 2.44 0 00322.37 282.44zM300.43 282.44a2.44 2.44 0 102.44 2.44A2.43 2.43 0 00300.43 282.44z"/><line x1="311.4" x2="316.33" y1="269.64" y2="264.71" fill="none" stroke="#fff" stroke-linecap="round" stroke-linejoin="round" stroke-width="3"/><polyline fill="none" stroke="#fff" stroke-linecap="round" stroke-linejoin="round" stroke-width="3" points="306.47 264.7 311.4 269.64 311.4 256.83"/><path fill="none" stroke="#111416" stroke-linecap="round" stroke-linejoin="round" stroke-width="3" d="M419,408.44a7.51,7.51,0,1,1,15,0c0,12.9-15,13.74-15,20.52v3.16h15"/><polyline fill="none" stroke="#111416" stroke-linecap="round" stroke-linejoin="round" stroke-width="3" points="453.27 432.12 453.27 400.93 439.53 419.22 453.27 419.22"/><line x1="463.1" x2="463.1" y1="432.12" y2="418.16" fill="none" stroke="#111416" stroke-linecap="round" stroke-linejoin="round" stroke-width="3"/><line x1="471.96" x2="471.96" y1="432.12" y2="418.16" fill="none" stroke="#111416" stroke-linecap="round" stroke-linejoin="round" stroke-width="3"/><line x1="471.96" x2="463.1" y1="425.14" y2="425.14" fill="none" stroke="#111416" stroke-linecap="round" stroke-linejoin="round" stroke-width="3"/><line x1="443.95" x2="443.95" y1="353.18" y2="357.6" fill="none" stroke="#111416" stroke-linecap="round" stroke-linejoin="round" stroke-width="3"/><line x1="443.95" x2="443.95" y1="483.71" y2="479.3" fill="none" stroke="#111416" stroke-linecap="round" stroke-linejoin="round" stroke-width="3"/><line x1="411.32" x2="413.53" y1="361.93" y2="365.75" fill="none" stroke="#111416" stroke-linecap="round" stroke-linejoin="round" stroke-width="3"/><line x1="476.58" x2="474.38" y1="474.97" y2="471.15" fill="none" stroke="#111416" stroke-linecap="round" stroke-linejoin="round" stroke-width="3"/><line x1="387.43" x2="391.25" y1="385.82" y2="388.02" fill="none" stroke="#111416" stroke-linecap="round" stroke-linejoin="round" stroke-width="3"/><line x1="500.47" x2="496.65" y1="451.08" y2="448.87" fill="none" stroke="#111416" stroke-linecap="round" stroke-linejoin="round" stroke-width="3"/><line x1="378.68" x2="383.1" y1="418.45" y2="418.45" fill="none" stroke="#111416" stroke-linecap="round" stroke-linejoin="round" stroke-width="3"/><line x1="509.22" x2="504.8" y1="418.45" y2="418.45" fill="none" stroke="#111416" stroke-linecap="round" stroke-linejoin="round" stroke-width="3"/><line x1="387.43" x2="391.25" y1="451.08" y2="448.87" fill="none" stroke="#111416" stroke-linecap="round" stroke-linejoin="round" stroke-width="3"/><line x1="500.47" x2="496.65" y1="385.82" y2="388.02" fill="none" stroke="#111416" stroke-linecap="round" stroke-linejoin="round" stroke-width="3"/><line x1="411.32" x2="413.52" y1="474.97" y2="471.15" fill="none" stroke="#111416" stroke-linecap="round" stroke-linejoin="round" stroke-width="3"/><line x1="476.58" x2="474.38" y1="361.93" y2="365.75" fill="none" stroke="#111416" stroke-linecap="round" stroke-linejoin="round" stroke-width="3"/><path fill="#b8d1cd" d="M487.09,281.36a18.83,18.83,0,1,1-18.82,18.82A18.83,18.83,0,0,1,487.09,281.36Z"/><line x1="487.09" x2="487.09" y1="307.69" y2="292.68" fill="none" stroke="#111416" stroke-linecap="round" stroke-linejoin="round" stroke-width="3"/><line x1="479.59" x2="494.6" y1="300.18" y2="300.18" fill="none" stroke="#111416" stroke-linecap="round" stroke-linejoin="round" stroke-width="3"/><path fill="none" stroke="#111416" stroke-linecap="round" stroke-linejoin="round" stroke-width="3" d="M549.14 334.37V351.2a12.38 12.38 0 01-24.75 0V334.37M573.88 334.37V351.2a12.37 12.37 0 01-24.74 0V334.37M598.63 334.37V351.2a12.38 12.38 0 01-24.75 0V334.37M623.38 334.37V351.2a12.38 12.38 0 01-24.75 0V334.37M648.13 334.37V351.2a12.38 12.38 0 01-24.75 0V334.37M672.88 334.37V351.2a12.38 12.38 0 01-24.75 0V334.37M697.62 334.37V351.2a12.37 12.37 0 01-24.74 0V334.37M722.37 334.37V351.2a12.38 12.38 0 01-24.75 0V334.37M747.12 334.37V351.2a12.38 12.38 0 01-24.75 0V334.37"/><line x1="524.39" x2="524.39" y1="354.44" y2="479.13" fill="none" stroke="#111416" stroke-linecap="round" stroke-linejoin="round" stroke-width="3"/><line x1="747.12" x2="747.12" y1="354.44" y2="479.13" fill="none" stroke="#111416" stroke-linecap="round" stroke-linejoin="round" stroke-width="3"/><polyline fill="none" stroke="#111416" stroke-linecap="round" stroke-linejoin="round" stroke-width="3" points="517.43 487.21 517.43 479.19 754.08 479.19 754.08 487.21"/><rect width="43.97" height="101.48" x="547.67" y="377.7" fill="none" stroke="#111416" stroke-linecap="round" stroke-linejoin="round" stroke-width="3"/><path fill="#111416" d="M582.6,428.54a1.85,1.85,0,1,1-1.85,1.84A1.84,1.84,0,0,1,582.6,428.54Z"/><rect width="119.48" height="79.01" x="604.8" y="377.7" fill="none" stroke="#111416" stroke-linecap="round" stroke-linejoin="round" stroke-width="3"/><rect width="236.65" height="11.61" x="517.43" y="322.75" fill="none" stroke="#111416" stroke-linecap="round" stroke-linejoin="round" stroke-width="3"/><line x1="624.78" x2="647.43" y1="456.71" y2="434.06" fill="none" stroke="#111416" stroke-linecap="round" stroke-linejoin="round" stroke-width="3"/><line x1="661.49" x2="666.92" y1="420.25" y2="414.83" fill="none" stroke="#111416" stroke-linecap="round" stroke-linejoin="round" stroke-width="3"/><line x1="685.88" x2="703.96" y1="395.86" y2="377.79" fill="none" stroke="#111416" stroke-linecap="round" stroke-linejoin="round" stroke-width="3"/><line x1="626.74" x2="656.62" y1="424.35" y2="394.47" fill="none" stroke="#111416" stroke-linecap="round" stroke-linejoin="round" stroke-width="3"/><line x1="666.92" x2="696.8" y1="442.79" y2="412.91" fill="none" stroke="#111416" stroke-linecap="round" stroke-linejoin="round" stroke-width="3"/><line x1="604.8" x2="618.27" y1="419.15" y2="405.68" fill="none" stroke="#111416" stroke-linecap="round" stroke-linejoin="round" stroke-width="3"/><line x1="710.8" x2="724.28" y1="429.53" y2="416.06" fill="none" stroke="#111416" stroke-linecap="round" stroke-linejoin="round" stroke-width="3"/><path fill="none" stroke="#111416" stroke-linecap="round" stroke-linejoin="round" stroke-width="3" d="M610.82 149.19a40.49 40.49 0 00-18.47 34v27M673.44 210.19v-27a40.52 40.52 0 00-19-34.36"/><line x1="673.44" x2="673.44" y1="220" y2="224.11" fill="none" stroke="#111416" stroke-linecap="round" stroke-linejoin="round" stroke-width="3"/><line x1="592.35" x2="592.35" y1="220" y2="224.11" fill="none" stroke="#111416" stroke-linecap="round" stroke-linejoin="round" stroke-width="3"/><rect width="139.4" height="95.95" x="566.93" y="200.16" fill="none" stroke="#111416" stroke-linecap="round" stroke-linejoin="round" stroke-width="3"/><line x1="695.12" x2="695.12" y1="200.16" y2="296.11" fill="none" stroke="#111416" stroke-linecap="round" stroke-linejoin="round" stroke-width="3"/><line x1="583.22" x2="583.22" y1="292.19" y2="303.94" fill="none" stroke="#111416" stroke-linecap="round" stroke-linejoin="round" stroke-width="3"/><line x1="622.77" x2="622.77" y1="290.14" y2="303.94" fill="none" stroke="#111416" stroke-linecap="round" stroke-linejoin="round" stroke-width="3"/><line x1="662.31" x2="662.31" y1="290.14" y2="315.88" fill="none" stroke="#111416" stroke-linecap="round" stroke-linejoin="round" stroke-width="3"/><line x1="603" x2="603" y1="285.29" y2="315.13" fill="none" stroke="#111416" stroke-linecap="round" stroke-linejoin="round" stroke-width="3"/><line x1="642.54" x2="642.54" y1="278.2" y2="307.67" fill="none" stroke="#111416" stroke-linecap="round" stroke-linejoin="round" stroke-width="3"/><line x1="682.09" x2="682.09" y1="288.65" y2="302.82" fill="none" stroke="#111416" stroke-linecap="round" stroke-linejoin="round" stroke-width="3"/><polyline fill="none" stroke="#ff8c94" stroke-linecap="round" stroke-linejoin="round" stroke-width="3" points="642.22 255.14 631.35 266.01 620.48 255.14"/><line x1="631.35" x2="631.35" y1="266.01" y2="220.25" fill="none" stroke="#ff8c94" stroke-linecap="round" stroke-linejoin="round" stroke-width="3"/><path fill="none" stroke="#111416" stroke-linecap="round" stroke-linejoin="round" stroke-width="3" d="M621.72 163.11a5.45 5.45 0 1010.89 0v-4.34M654.41 158.9a7.21 7.21 0 007.21-7.21"/><path fill="none" stroke="#111416" stroke-linecap="round" stroke-linejoin="round" stroke-width="3" d="M621.72 158.77v4.34a5.45 5.45 0 01-10.9 0V137A4.06 4.06 0 01615 132.8v-8.51M654.41 148.83v14.28a5.45 5.45 0 11-10.89 0v0a5.46 5.46 0 01-10.91 0"/><line x1="654.41" x2="654.41" y1="147.12" y2="148.83" fill="none" stroke="#111416" stroke-linecap="round" stroke-linejoin="round" stroke-width="3"/><polyline fill="none" stroke="#111416" stroke-linecap="round" stroke-linejoin="round" stroke-width="3" points="648.53 99.31 648.53 124.29 614.98 124.29 614.98 99.31"/><circle cx="640.26" cy="116.02" r="1.74" fill="#111416"/><path fill="none" stroke="#111416" stroke-linecap="round" stroke-linejoin="round" stroke-width="3" d="M648.53 128.73v-4.44M661.62 151.69v-11.1c0-8.84-10.79-11.86-13.09-11.86"/><rect width="90.97" height="67.17" x="902.08" y="281.52" fill="#ff8c94"/><path fill="none" stroke="#111416" stroke-linecap="round" stroke-linejoin="round" stroke-width="3" d="M925.83,287.89v-6a21.74,21.74,0,1,1,43.48,0v6"/><line x1="925.83" x2="925.83" y1="296.81" y2="301.37" fill="none" stroke="#111416" stroke-linecap="round" stroke-linejoin="round" stroke-width="3"/><line x1="969.31" x2="969.31" y1="296.81" y2="301.37" fill="none" stroke="#111416" stroke-linecap="round" stroke-linejoin="round" stroke-width="3"/><path fill="none" stroke="#111416" stroke-linecap="round" stroke-linejoin="round" stroke-width="3" d="M837.22,269.9v4.56a20.07,20.07,0,0,0,40.13,0V269.9"/><rect width="101.75" height="95.62" x="809.8" y="260.03" fill="none" stroke="#111416" stroke-linecap="round" stroke-linejoin="round" stroke-width="3"/><line x1="902.08" x2="902.08" y1="260.03" y2="355.65" fill="none" stroke="#111416" stroke-linecap="round" stroke-linejoin="round" stroke-width="3"/><path fill="none" stroke="#111416" stroke-linecap="round" stroke-linejoin="round" stroke-width="3" d="M1094.61 326.88c-16.42-4.94-26.93-25.92-26.93-48.47s10.51-43.54 26.93-48.47M1094.61 326.88c16.43-4.94 26.93-25.92 26.93-48.47s-10.5-43.54-26.93-48.47"/><line x1="1094.61" x2="1094.61" y1="229.94" y2="326.88" fill="none" stroke="#111416" stroke-linecap="round" stroke-linejoin="round" stroke-width="3"/><line x1="1046.14" x2="1143.08" y1="278.41" y2="278.41" fill="none" stroke="#111416" stroke-linecap="round" stroke-linejoin="round" stroke-width="3"/><path fill="none" stroke="#111416" stroke-linecap="round" stroke-linejoin="round" stroke-width="3" d="M1126.61 242a40.28 40.28 0 01-64 0M1126.62 314.8a40.28 40.28 0 00-64 0"/><path fill="none" stroke="#111416" stroke-linecap="round" stroke-linejoin="round" stroke-width="3" d="M1046.14,278.41a48.47,48.47,0,1,1,48.47,48.47A48.47,48.47,0,0,1,1046.14,278.41Z"/><path fill="#ff8c94" d="M1085.68,419H1057.2v28.49h0l34.5,34.5,28.49-28.49Zm-17.87,19.73a6.45,6.45,0,1,1,9.11,0A6.45,6.45,0,0,1,1067.81,438.68Z"/><path fill="none" stroke="#111416" stroke-linecap="round" stroke-linejoin="round" stroke-width="3" d="M1037.79,417.24c10,10,18.15,14.42,31.94,16.39"/><line x1="1097.25" x2="1083.48" y1="445.24" y2="459.01" fill="none" stroke="#111416" stroke-linecap="round" stroke-linejoin="round" stroke-width="3"/><line x1="1083.48" x2="1097.25" y1="445.24" y2="459.01" fill="none" stroke="#111416" stroke-linecap="round" stroke-linejoin="round" stroke-width="3"/><path fill="none" stroke="#111416" stroke-linecap="round" stroke-linejoin="round" stroke-width="3" d="M1047,514.23a19.17,19.17,0,1,1-19.17,19.16A19.16,19.16,0,0,1,1047,514.23Z"/><line x1="1043.87" x2="1037.44" y1="540.66" y2="534.23" fill="none" stroke="#111416" stroke-linecap="round" stroke-linejoin="round" stroke-width="3"/><line x1="1043.87" x2="1056.29" y1="540.66" y2="528.23" fill="none" stroke="#111416" stroke-linecap="round" stroke-linejoin="round" stroke-width="3"/><path fill="#47dbe6" d="M194.43,159.88a19.17,19.17,0,1,1-19.17,19.17A19.17,19.17,0,0,1,194.43,159.88Z"/><line x1="191.35" x2="184.92" y1="186.31" y2="179.89" fill="none" stroke="#111416" stroke-linecap="round" stroke-linejoin="round" stroke-width="3"/><line x1="191.35" x2="203.77" y1="186.31" y2="173.89" fill="none" stroke="#111416" stroke-linecap="round" stroke-linejoin="round" stroke-width="3"/><path fill="none" stroke="#111416" stroke-linejoin="round" stroke-width="3" d="M871,174.66a24.47,24.47,0,1,1,24.47,24.46A24.46,24.46,0,0,1,871,174.66Z"/><path fill="none" stroke="#111416" stroke-linecap="round" stroke-width="3" d="M895.38 174.66a6.4 6.4 0 010-12.79M895.38 161.87a6.39 6.39 0 016.4 6.39M895.38 174.66a6.4 6.4 0 110 12.79M895.38 187.45a6.4 6.4 0 01-6.39-6.4"/><line x1="895.38" x2="895.38" y1="161.87" y2="158.47" fill="none" stroke="#111416" stroke-width="3"/><line x1="895.38" x2="895.38" y1="190.84" y2="187.45" fill="none" stroke="#111416" stroke-width="3"/><path fill="#ff8c94" d="M477,645.26a24.47,24.47,0,1,1,24.47,24.46A24.47,24.47,0,0,1,477,645.26Z"/><path fill="none" stroke="#fff" stroke-linecap="round" stroke-width="3" d="M501.41 645.26a6.4 6.4 0 110-12.79M501.41 632.47a6.39 6.39 0 016.39 6.39M501.41 645.26a6.4 6.4 0 010 12.79M501.41 658.05a6.4 6.4 0 01-6.4-6.4"/><line x1="501.41" x2="501.41" y1="632.47" y2="629.07" fill="none" stroke="#fff" stroke-width="3"/><line x1="501.41" x2="501.41" y1="661.44" y2="658.05" fill="none" stroke="#fff" stroke-width="3"/><polygon fill="#ff8c94" points="784.09 256.67 771.98 263.03 774.29 249.54 764.49 239.99 778.03 238.02 784.09 225.75 790.14 238.02 803.69 239.99 793.89 249.54 796.2 263.03 784.09 256.67"/><polygon fill="#b8d1cd" points="990.94 219.4 984.79 222.63 985.97 215.79 980.99 210.94 987.87 209.94 990.94 203.72 994.01 209.94 1000.89 210.94 995.91 215.79 997.09 222.63 990.94 219.4"/><path fill="none" stroke="#b8d1cd" stroke-linecap="round" stroke-width="3" d="M1126.07,394a10.91,10.91,0,0,0,15.41,0,10.91,10.91,0,0,1,15.41,0,10.91,10.91,0,0,0,15.41,0,10.89,10.89,0,0,1,15.4,0"/><path fill="none" stroke="#47dbe6" stroke-linecap="round" stroke-width="3" d="M486.41,261.58a10.91,10.91,0,0,0,15.41,0,10.91,10.91,0,0,1,15.41,0,10.89,10.89,0,0,0,15.4,0,10.91,10.91,0,0,1,15.41,0"/><line x1="165.37" x2="153.19" y1="275.52" y2="275.52" fill="none" stroke="#b8d1cd" stroke-linecap="round" stroke-width="3"/><line x1="130.44" x2="91.03" y1="275.52" y2="275.52" fill="none" stroke="#b8d1cd" stroke-linecap="round" stroke-width="3"/><line x1="306.92" x2="294.74" y1="605.37" y2="605.37" fill="none" stroke="#b8d1cd" stroke-linecap="round" stroke-width="3"/><line x1="272" x2="207.34" y1="605.37" y2="605.37" fill="none" stroke="#b8d1cd" stroke-linecap="round" stroke-width="3"/><line x1="340.36" x2="266.03" y1="584.47" y2="584.47" fill="none" stroke="#47dbe6" stroke-linecap="round" stroke-width="3"/><line x1="545.58" x2="477.64" y1="128.13" y2="128.13" fill="none" stroke="#47dbe6" stroke-linecap="round" stroke-width="3"/><line x1="420.56" x2="408.37" y1="656.48" y2="656.48" fill="none" stroke="#b8d1cd" stroke-linecap="round" stroke-width="3"/><line x1="385.63" x2="327.64" y1="656.48" y2="656.48" fill="none" stroke="#b8d1cd" stroke-linecap="round" stroke-width="3"/><line x1="1149.38" x2="1075.51" y1="506.65" y2="506.65" fill="none" stroke="#b8d1cd" stroke-linecap="round" stroke-width="3"/><line x1="916.54" x2="873.57" y1="504.19" y2="504.19" fill="none" stroke="#b8d1cd" stroke-linecap="round" stroke-width="3"/><line x1="879.37" x2="857.31" y1="522.35" y2="522.35" fill="none" stroke="#ff8c94" stroke-linecap="round" stroke-width="3"/><line x1="943.15" x2="930.97" y1="669.64" y2="669.64" fill="none" stroke="#ff8c94" stroke-linecap="round" stroke-width="3"/><line x1="908.23" x2="827.86" y1="669.64" y2="669.64" fill="none" stroke="#ff8c94" stroke-linecap="round" stroke-width="3"/><line x1="878.12" x2="795.73" y1="644.87" y2="644.87" fill="none" stroke="#b8d1cd" stroke-linecap="round" stroke-width="3"/><line x1="118.76" x2="52.98" y1="297.3" y2="297.3" fill="none" stroke="#47dbe6" stroke-linecap="round" stroke-width="3"/><line x1="519.41" x2="484.45" y1="567.14" y2="567.14" fill="none" stroke="#47dbe6" stroke-linecap="round" stroke-width="3"/><line x1="1133.78" x2="1087.93" y1="363.48" y2="363.48" fill="none" stroke="#47dbe6" stroke-linecap="round" stroke-width="3"/><line x1="861.78" x2="777.61" y1="117.68" y2="117.68" fill="none" stroke="#47dbe6" stroke-linecap="round" stroke-width="3"/><line x1="800.74" x2="746.73" y1="143.72" y2="143.72" fill="none" stroke="#b8d1cd" stroke-linecap="round" stroke-width="3"/><line x1="779.56" x2="747.38" y1="289.46" y2="289.46" fill="none" stroke="#47dbe6" stroke-linecap="round" stroke-width="3"/><line x1="492.66" x2="486.06" y1="102.48" y2="102.48" fill="none" stroke="#b8d1cd" stroke-linecap="round" stroke-width="3"/><line x1="473.73" x2="430.85" y1="102.48" y2="102.48" fill="none" stroke="#b8d1cd" stroke-linecap="round" stroke-width="3"/><path fill="none" stroke="#b8d1cd" stroke-linecap="round" stroke-linejoin="round" stroke-width="3" d="M1150 227.31a13.82 13.82 0 00-13.82-13.82A13.81 13.81 0 001150 199.67a13.82 13.82 0 0013.82 13.82A13.82 13.82 0 001150 227.31zM549 545.82A13.82 13.82 0 00535.18 532 13.81 13.81 0 00549 518.18 13.82 13.82 0 00562.82 532 13.82 13.82 0 00549 545.82zM334.22 158.74a13.82 13.82 0 00-13.82-13.82 13.82 13.82 0 0013.82-13.82A13.82 13.82 0 00348 144.92 13.82 13.82 0 00334.22 158.74z"/><line x1="552.6" x2="552.6" y1="92.32" y2="97.45" fill="none" stroke="#ff8c94" stroke-linecap="round" stroke-linejoin="round" stroke-width="3"/><line x1="547.57" x2="542.44" y1="102.48" y2="102.48" fill="none" stroke="#ff8c94" stroke-linecap="round" stroke-linejoin="round" stroke-width="3"/><line x1="552.6" x2="552.6" y1="112.64" y2="107.51" fill="none" stroke="#ff8c94" stroke-linecap="round" stroke-linejoin="round" stroke-width="3"/><line x1="557.63" x2="562.76" y1="102.48" y2="102.48" fill="none" stroke="#ff8c94" stroke-linecap="round" stroke-linejoin="round" stroke-width="3"/><line x1="852.38" x2="852.38" y1="206.94" y2="212.07" fill="none" stroke="#b8d1cd" stroke-linecap="round" stroke-linejoin="round" stroke-width="3"/><line x1="847.35" x2="842.22" y1="217.1" y2="217.1" fill="none" stroke="#b8d1cd" stroke-linecap="round" stroke-linejoin="round" stroke-width="3"/><line x1="852.38" x2="852.38" y1="227.26" y2="222.13" fill="none" stroke="#b8d1cd" stroke-linecap="round" stroke-linejoin="round" stroke-width="3"/><line x1="857.42" x2="862.55" y1="217.1" y2="217.1" fill="none" stroke="#b8d1cd" stroke-linecap="round" stroke-linejoin="round" stroke-width="3"/><line x1="22.46" x2="22.46" y1="483.71" y2="488.84" fill="none" stroke="#47dbe6" stroke-linecap="round" stroke-linejoin="round" stroke-width="3"/><line x1="17.43" x2="12.3" y1="493.87" y2="493.87" fill="none" stroke="#47dbe6" stroke-linecap="round" stroke-linejoin="round" stroke-width="3"/><line x1="22.46" x2="22.46" y1="504.04" y2="498.91" fill="none" stroke="#47dbe6" stroke-linecap="round" stroke-linejoin="round" stroke-width="3"/><line x1="27.49" x2="32.62" y1="493.87" y2="493.87" fill="none" stroke="#47dbe6" stroke-linecap="round" stroke-linejoin="round" stroke-width="3"/><line x1="771.03" x2="771.03" y1="687.36" y2="692.49" fill="none" stroke="#47dbe6" stroke-linecap="round" stroke-linejoin="round" stroke-width="3"/><line x1="765.99" x2="760.86" y1="697.52" y2="697.52" fill="none" stroke="#47dbe6" stroke-linecap="round" stroke-linejoin="round" stroke-width="3"/><line x1="771.03" x2="771.03" y1="707.68" y2="702.55" fill="none" stroke="#47dbe6" stroke-linecap="round" stroke-linejoin="round" stroke-width="3"/><line x1="776.06" x2="781.19" y1="697.52" y2="697.52" fill="none" stroke="#47dbe6" stroke-linecap="round" stroke-linejoin="round" stroke-width="3"/><line x1="423.82" x2="423.82" y1="318.78" y2="323.91" fill="none" stroke="#ff8c94" stroke-linecap="round" stroke-linejoin="round" stroke-width="3"/><line x1="418.78" x2="413.66" y1="328.95" y2="328.95" fill="none" stroke="#ff8c94" stroke-linecap="round" stroke-linejoin="round" stroke-width="3"/><line x1="423.82" x2="423.82" y1="339.11" y2="333.98" fill="none" stroke="#ff8c94" stroke-linecap="round" stroke-linejoin="round" stroke-width="3"/><line x1="428.85" x2="433.98" y1="328.95" y2="328.95" fill="none" stroke="#ff8c94" stroke-linecap="round" stroke-linejoin="round" stroke-width="3"/><path fill="none" stroke="#b8d1cd" stroke-linecap="round" stroke-width="3" d="M716.89,307.23a7.18,7.18,0,0,0,10.13,0,7.16,7.16,0,0,1,10.13,0"/><circle cx="733.57" cy="598.41" r="8.44" fill="none" stroke="#b8d1cd" stroke-linecap="round" stroke-linejoin="round" stroke-width="3"/><polyline fill="none" stroke="#ff8c94" stroke-linecap="round" stroke-linejoin="round" stroke-width="3" points="120.12 535.49 109.67 545.95 120.12 556.4 109.67 566.85 120.12 577.31 109.67 587.76 120.12 598.21 109.67 608.67 120.12 619.12 109.67 629.57"/><polyline fill="none" stroke="#47dbe6" stroke-linecap="round" stroke-linejoin="round" stroke-width="3" points="1017.33 309.31 1027.78 298.86 1017.33 288.4 1027.78 277.95 1017.33 267.5 1027.78 257.05 1017.33 246.59 1027.78 236.14"/><polyline fill="none" stroke="#47dbe6" stroke-linecap="round" stroke-linejoin="round" stroke-width="3" points="1027.42 589.12 1016.97 599.57 1027.42 610.02 1016.97 620.48 1027.42 630.93 1016.97 641.38"/></g></svg>